<svg width="28" height="28" viewBox="0 0 28 28" fill="none" xmlns="http://www.w3.org/2000/svg">
<path d="M18.2499 23C18.2499 23.1989 18.1709 23.3897 18.0303 23.5303C17.8896 23.671 17.6988 23.75 17.4999 23.75H11.4999C11.301 23.75 11.1103 23.671 10.9696 23.5303C10.8289 23.3897 10.7499 23.1989 10.7499 23C10.7499 22.8011 10.8289 22.6103 10.9696 22.4697C11.1103 22.329 11.301 22.25 11.4999 22.25H17.4999C17.6988 22.25 17.8896 22.329 18.0303 22.4697C18.1709 22.6103 18.2499 22.8011 18.2499 23ZM23.2984 20C23.1682 20.2292 22.9793 20.4196 22.7511 20.5514C22.5228 20.6833 22.2635 20.7518 21.9999 20.75H6.99993C6.73625 20.7496 6.47731 20.6798 6.24923 20.5475C6.02115 20.4151 5.83198 20.225 5.70079 19.9963C5.5696 19.7676 5.50102 19.5083 5.50196 19.2446C5.50291 18.9809 5.57335 18.7222 5.70618 18.4944C6.22649 17.5981 6.99993 15.0631 6.99993 11.75C6.99993 9.76088 7.79011 7.85322 9.19663 6.4467C10.6032 5.04018 12.5108 4.25 14.4999 4.25C16.4891 4.25 18.3967 5.04018 19.8032 6.4467C21.2098 7.85322 21.9999 9.76088 21.9999 11.75C21.9999 15.0622 22.7743 17.5981 23.2946 18.4944C23.4288 18.7225 23.4997 18.9822 23.5002 19.2468C23.5007 19.5114 23.4307 19.7714 23.2974 20H23.2984ZM21.9999 19.25C21.2752 18.0059 20.4999 15.1297 20.4999 11.75C20.4999 10.1587 19.8678 8.63258 18.7426 7.50736C17.6174 6.38214 16.0912 5.75 14.4999 5.75C12.9086 5.75 11.3825 6.38214 10.2573 7.50736C9.13207 8.63258 8.49993 10.1587 8.49993 11.75C8.49993 15.1306 7.72368 18.0069 6.99993 19.25H21.9999Z" fill="#222B33"/>
<circle cx="18.5" cy="6" r="4" fill="#A6220D"/>
</svg>
